<?xml version="1.0" standalone="no"?>
<!DOCTYPE svg PUBLIC "-//W3C//DTD SVG 20010904//EN"
 "http://www.w3.org/TR/2001/REC-SVG-20010904/DTD/svg10.dtd">
<svg version="1.0" xmlns="http://www.w3.org/2000/svg"
 width="512.000000pt" height="512.000000pt" viewBox="0 0 512.000000 512.000000"
 preserveAspectRatio="xMidYMid meet">

<g transform="translate(0.000000,512.000000) scale(0.100000,-0.100000)"
fill="#000000" stroke="none">
<path d="M1551 3670 l-394 -690 -363 0 -364 0 0 -210 0 -210 128 0 129 0 197
-887 c219 -988 209 -955 301 -1002 l49 -26 1326 0 1326 0 49 26 c92 47 82 14
301 1002 l197 887 129 0 128 0 0 210 0 210 -364 0 -363 0 -394 690 c-217 379
-398 690 -403 690 -10 0 -345 -190 -351 -200 -2 -3 143 -263 322 -576 179
-313 328 -577 330 -586 5 -17 -43 -18 -907 -18 -864 0 -912 1 -907 18 2 9 151
273 330 586 179 313 324 573 322 576 -6 10 -341 200 -351 200 -5 0 -186 -311
-403 -690z m2449 -1122 c-1 -7 -74 -344 -164 -748 l-163 -735 -1113 0 -1113 0
-163 730 c-90 402 -163 738 -163 748 -1 16 74 17 1439 17 1146 0 1440 -3 1440
-12z"/>
<path d="M1710 1810 l0 -530 210 0 210 0 0 530 0 530 -210 0 -210 0 0 -530z"/>
<path d="M2350 1810 l0 -530 210 0 210 0 0 530 0 530 -210 0 -210 0 0 -530z"/>
<path d="M2990 1810 l0 -530 210 0 210 0 0 530 0 530 -210 0 -210 0 0 -530z"/>
</g>
</svg>
