<?xml version="1.0" standalone="no"?>
<!DOCTYPE svg PUBLIC "-//W3C//DTD SVG 20010904//EN"
 "http://www.w3.org/TR/2001/REC-SVG-20010904/DTD/svg10.dtd">
<svg version="1.0" xmlns="http://www.w3.org/2000/svg"
 width="920.000000pt" height="512.000000pt" viewBox="0 0 920.000000 512.000000"
 preserveAspectRatio="xMidYMid meet">

<g transform="translate(0.000000,512.000000) scale(0.100000,-0.100000)"
fill="#000000" stroke="none">
<path d="M4013 5035 c-121 -33 -214 -108 -266 -214 -31 -64 -32 -70 -35 -218
l-4 -153 -499 0 -499 0 0 -100 0 -100 105 0 105 0 0 -31 c0 -17 5 -106 10
-197 6 -92 22 -385 35 -652 106 -2041 156 -2951 166 -2990 26 -111 129 -228
236 -272 l58 -23 1185 0 1185 0 67 32 c124 59 207 168 228 300 5 32 17 207 25
388 9 182 25 499 35 705 11 206 27 508 35 670 9 162 22 421 30 575 8 154 22
417 30 585 9 168 22 424 30 570 8 146 15 282 15 303 l0 37 100 0 100 0 0 100
0 100 -501 0 -500 0 6 78 c9 102 -7 217 -38 286 -53 115 -165 202 -291 225
-95 18 -1086 14 -1153 -4z m1140 -196 c21 -5 53 -24 73 -41 58 -52 67 -79 72
-220 l4 -128 -698 0 -699 0 5 137 c5 146 11 165 68 216 49 45 70 46 617 47
333 0 534 -4 558 -11z m937 -641 c0 -29 -5 -129 -10 -223 -11 -197 -24 -439
-85 -1635 -24 -481 -47 -915 -50 -965 -3 -49 -14 -270 -25 -490 -11 -220 -23
-419 -26 -442 -7 -55 -52 -115 -106 -142 l-44 -21 -1126 0 c-619 0 -1139 3
-1156 6 -41 8 -111 69 -129 113 -11 26 -38 472 -114 1910 -54 1032 -99 1891
-99 1909 l0 32 1485 0 1485 0 0 -52z"/>
<path d="M4578 3852 l-78 -3 0 -1584 0 -1585 100 0 100 0 0 1588 0 1588 -22 0
c-13 -1 -58 -2 -100 -4z"/>
<path d="M5296 3809 c-3 -30 -17 -238 -31 -464 -14 -225 -47 -763 -75 -1195
-27 -432 -59 -937 -71 -1123 -11 -186 -19 -340 -17 -342 1 -1 47 -6 101 -10
l97 -7 0 39 c0 21 13 247 30 503 16 256 48 758 70 1115 23 358 54 846 69 1085
15 239 27 436 27 436 -1 1 -44 5 -98 9 l-96 7 -6 -53z"/>
<path d="M3733 3843 c-15 -3 -23 -12 -23 -25 0 -21 80 -1278 100 -1578 6 -85
31 -472 56 -859 24 -388 46 -706 48 -708 2 -2 47 -1 100 3 l96 7 -5 66 c-3 36
-24 347 -45 691 -22 344 -44 695 -50 780 -15 227 -88 1376 -96 1513 l-7 117
-76 -1 c-42 -1 -86 -4 -98 -6z"/>
</g>
</svg>
