<?xml version="1.0" standalone="no"?>
<!DOCTYPE svg PUBLIC "-//W3C//DTD SVG 20010904//EN"
 "http://www.w3.org/TR/2001/REC-SVG-20010904/DTD/svg10.dtd">
<svg version="1.0" xmlns="http://www.w3.org/2000/svg"
 width="2400.000000pt" height="2400.000000pt" viewBox="0 0 2400.000000 2400.000000"
 preserveAspectRatio="xMidYMid meet">

<g transform="translate(0.000000,2400.000000) scale(0.100000,-0.100000)"
fill="#000000" stroke="none">
<path d="M5140 23994 c-428 -38 -876 -172 -1345 -404 -1333 -658 -2732 -2060
-3390 -3395 -462 -939 -529 -1781 -195 -2472 66 -138 164 -292 253 -397 33
-39 1178 -1190 2546 -2558 l2486 -2488 -1511 -1512 c-830 -832 -1582 -1592
-1670 -1688 -1260 -1378 -2025 -2603 -2218 -3550 -48 -238 -61 -563 -31 -779
54 -384 205 -713 459 -1001 119 -135 3224 -3231 3296 -3287 245 -189 515 -315
797 -372 325 -65 684 -52 1046 40 962 243 2205 1052 3547 2308 91 85 820 809
1620 1608 l1455 1453 2495 -2496 c1372 -1372 2530 -2523 2573 -2557 282 -224
621 -369 987 -421 861 -123 1900 259 2980 1098 474 367 994 875 1406 1372 609
734 1048 1546 1199 2219 54 242 69 372 69 615 0 165 -5 256 -18 340 -58 383
-196 705 -426 995 -35 44 -1183 1201 -2551 2570 l-2488 2490 1467 1470 c1401
1403 1659 1667 1977 2030 589 671 1087 1352 1424 1948 96 170 277 542 336 692
151 381 222 698 232 1025 15 493 -107 887 -390 1265 -38 51 -648 669 -1696
1716 -1682 1682 -1701 1701 -1886 1811 -477 284 -1039 346 -1668 183 -308 -80
-650 -219 -997 -405 -768 -412 -1619 -1050 -2520 -1888 -91 -85 -819 -809
-1617 -1611 l-1452 -1456 -2493 2491 c-1371 1370 -2520 2513 -2553 2541 -259
218 -604 372 -970 433 -116 20 -453 34 -565 24z"/>
</g>
</svg>
