<?xml version="1.0" encoding="utf-8"?>
<!-- Svg Vector Icons : http://www.onlinewebfonts.com/icon -->
<!DOCTYPE svg PUBLIC "-//W3C//DTD SVG 1.1//EN" "http://www.w3.org/Graphics/SVG/1.1/DTD/svg11.dtd">
<svg version="1.1" xmlns="http://www.w3.org/2000/svg" xmlns:xlink="http://www.w3.org/1999/xlink" x="0px" y="0px" viewBox="0 0 1000 1000" enable-background="new 0 0 1000 1000" xml:space="preserve">
<metadata> Svg Vector Icons : http://www.onlinewebfonts.com/icon </metadata>
<g><path d="M990,836.9C990,921.5,770.6,990,500,990c-270.6,0-490-68.5-490-153.1c0-72.9,163.1-133.8,381.5-149.2L255,500h0.4c-38.5-51.3-61.7-114.7-61.7-183.8C193.8,147.1,330.9,10,500,10c169.1,0,306.3,137.1,306.3,306.2c0,69-23.1,132.5-61.7,183.8h0.4L608.5,687.6C826.9,703.1,990,764,990,836.9z M500,224.4c-50.8,0-91.9,41.1-91.9,91.9c0,50.7,41.1,91.9,91.9,91.9c50.8,0,91.9-41.2,91.9-91.9C591.9,265.5,550.8,224.4,500,224.4z M565.8,746.3L500,836.9l-65.8-90.6c-188.5,7.3-332.3,45-332.3,90.6c0,50.7,178.2,91.9,398.1,91.9c219.9,0,398.1-41.2,398.1-91.9C898.1,791.3,754.3,753.6,565.8,746.3z"/></g>
</svg>