<?xml version="1.0" standalone="no"?>
<!DOCTYPE svg PUBLIC "-//W3C//DTD SVG 20010904//EN"
 "http://www.w3.org/TR/2001/REC-SVG-20010904/DTD/svg10.dtd">
<svg version="1.0" xmlns="http://www.w3.org/2000/svg"
 width="299.000000pt" height="101.000000pt" viewBox="0 0 299.000000 101.000000"
 preserveAspectRatio="xMidYMid meet">

<g transform="translate(0.000000,101.000000) scale(0.100000,-0.100000)"
fill="#000000" stroke="none">
<path d="M0 505 l0 -505 1495 0 1495 0 0 505 0 505 -1495 0 -1495 0 0 -505z
m409 266 c67 -13 93 -62 51 -98 -19 -16 -19 -17 3 -28 30 -15 35 -67 8 -94
-22 -22 -97 -34 -176 -29 l-50 3 -3 114 c-1 63 0 121 2 128 6 15 95 17 165 4z
m366 -1 c4 -6 -30 -10 -94 -10 l-101 0 0 -50 0 -50 103 -2 102 -2 -102 -3
-103 -4 0 -54 0 -55 100 0 c60 0 100 -4 100 -10 0 -6 -43 -10 -110 -10 l-110
0 0 130 0 130 104 0 c59 0 108 -4 111 -10z m308 -5 c30 -12 18 -24 -15 -14
-54 15 -170 11 -196 -7 -26 -18 -29 -50 -4 -62 9 -5 55 -13 102 -17 99 -8 145
-25 155 -55 10 -30 -17 -66 -61 -80 -41 -14 -162 -8 -209 10 -41 16 -24 22 26
11 59 -14 162 -14 193 0 29 14 39 42 21 66 -10 13 -39 20 -119 29 -110 12
-146 28 -146 64 0 20 25 45 60 60 26 10 162 7 193 -5z m352 5 c4 -6 -18 -10
-59 -10 l-66 0 0 -115 c0 -70 -4 -115 -10 -115 -6 0 -10 45 -10 115 l0 115
-71 0 c-44 0 -68 4 -64 10 4 6 62 10 140 10 78 0 136 -4 140 -10z m288 -5 c30
-12 18 -24 -15 -14 -54 15 -170 11 -196 -7 -26 -18 -29 -50 -4 -62 9 -5 53
-13 97 -16 107 -9 144 -22 156 -53 13 -35 -10 -68 -57 -83 -42 -14 -161 -8
-208 9 -41 16 -26 25 21 12 51 -14 166 -14 198 1 18 8 25 19 25 39 0 37 -18
46 -120 54 -120 11 -149 24 -150 68 0 20 30 49 63 59 26 8 164 3 190 -7z m668
-5 c35 -16 59 -60 59 -109 0 -86 -41 -121 -150 -128 -88 -6 -149 23 -168 81
-35 109 38 181 173 172 33 -2 72 -9 86 -16z m263 11 c76 -13 104 -61 74 -125
-13 -31 -59 -46 -135 -46 -52 0 -53 -1 -53 -29 0 -34 -15 -49 -24 -25 -8 20
-8 198 0 218 7 18 56 20 138 7z m-804 -62 l0 -49 95 0 95 0 0 55 c0 30 5 55
10 55 6 0 10 -47 10 -120 0 -73 -4 -120 -10 -120 -6 0 -10 27 -10 60 l0 60
-95 0 -94 0 -3 -55 c-2 -30 -7 -56 -13 -58 -11 -2 -20 196 -10 220 10 28 25 0
25 -48z m-921 -359 c4 0 18 11 31 25 13 14 26 23 28 20 3 -3 -5 -16 -18 -30
l-23 -25 23 -25 c13 -14 21 -27 18 -30 -2 -3 -15 6 -28 20 -30 32 -40 32 -40
0 0 -14 -4 -25 -10 -25 -5 0 -10 24 -10 53 0 57 13 87 18 43 2 -14 7 -26 11
-26z m94 -17 l14 -27 16 30 c24 44 20 11 -5 -40 -22 -46 -42 -63 -53 -46 -4 6
0 10 8 10 23 0 28 28 12 60 -8 16 -15 31 -15 35 0 13 10 3 23 -22z m145 -18
c4 -44 -14 -39 -20 5 -5 37 -32 32 -36 -7 -5 -47 -22 -41 -22 8 l0 40 38 -3
c35 -3 37 -5 40 -43z m42 16 c0 -16 6 -31 14 -34 18 -7 26 1 26 29 0 13 5 26
10 29 6 4 10 -9 10 -32 0 -36 -2 -39 -30 -41 -20 -2 -32 4 -40 17 -13 25 -13
61 0 61 6 0 10 -13 10 -29z m152 -3 c2 -21 8 -33 18 -33 10 0 16 12 18 33 5
46 22 40 22 -8 0 -37 -2 -40 -28 -40 -36 0 -52 16 -52 52 0 39 18 35 22 -4z
m141 -3 c20 -41 20 -45 7 -45 -5 0 -12 11 -16 25 -8 32 -18 32 -33 -1 -6 -15
-14 -24 -17 -22 -6 7 27 78 36 78 3 0 14 -16 23 -35z m59 -27 c21 -12 38 4 38
35 0 22 3 28 11 20 6 -6 9 -23 7 -39 -2 -23 -8 -28 -36 -31 -27 -4 -34 0 -42
23 -6 15 -8 35 -4 43 6 12 9 8 12 -14 2 -16 9 -33 14 -37z m141 36 l13 -25 12
27 c7 14 16 24 19 20 9 -9 -37 -104 -53 -110 -7 -3 -16 -1 -19 4 -4 6 0 10 9
10 23 0 25 22 4 63 -20 41 -7 52 15 11z m100 4 l16 -23 16 23 c9 12 20 22 26
22 12 0 12 -67 -1 -75 -6 -4 -10 6 -10 22 -1 26 -1 27 -15 9 -12 -16 -17 -17
-30 -6 -12 10 -15 10 -15 -3 0 -9 -4 -19 -10 -22 -6 -4 -10 10 -10 34 0 46 10
52 33 19z m167 2 c16 -30 -5 -63 -36 -57 -18 3 -24 0 -24 -14 0 -11 -4 -19
-10 -19 -14 0 -12 84 2 98 19 19 56 14 68 -8z m55 -40 c20 -17 35 -4 35 31 0
16 5 29 10 29 6 0 10 -18 10 -41 l0 -40 -37 3 c-37 3 -38 4 -39 43 -1 23 0 28
3 13 2 -14 10 -32 18 -38z"/>
<path d="M260 709 l0 -52 86 6 c92 7 117 18 112 51 -5 31 -45 46 -125 46 l-73
0 0 -51z"/>
<path d="M260 595 l0 -55 83 0 c92 0 127 15 127 55 0 40 -35 55 -127 55 l-83
0 0 -55z"/>
<path d="M2210 753 c-43 -17 -60 -46 -60 -104 0 -52 3 -60 32 -84 30 -25 37
-27 116 -23 77 3 86 5 108 31 34 39 34 115 0 154 -22 26 -30 28 -103 30 -43 1
-85 0 -93 -4z"/>
<path d="M2540 691 l0 -71 70 0 c57 0 74 4 90 20 25 25 26 61 1 91 -16 19 -30
24 -90 27 l-71 4 0 -71z"/>
<path d="M1917 344 c-12 -12 -8 -42 6 -47 21 -8 39 8 35 29 -3 19 -29 30 -41
18z"/>
</g>
</svg>
