<?xml version="1.0" encoding="utf-8"?>
<!-- Svg Vector Icons : http://www.onlinewebfonts.com/icon -->
<!DOCTYPE svg PUBLIC "-//W3C//DTD SVG 1.1//EN" "http://www.w3.org/Graphics/SVG/1.1/DTD/svg11.dtd">
<svg version="1.1" xmlns="http://www.w3.org/2000/svg" xmlns:xlink="http://www.w3.org/1999/xlink" x="0px" y="0px" viewBox="0 0 1000 1000" enable-background="new 0 0 1000 1000" xml:space="preserve">
<metadata> Svg Vector Icons : http://www.onlinewebfonts.com/icon </metadata>
<g><g><g><g><path d="M563.8,341.7c0-61.4-24.9-116.9-65-157l0,0l0,0c-40.2-40.2-95.7-65.1-157-65.1c-61.3,0-116.9,24.9-157.1,65c-40.1,40.2-65,95.7-65,157.1c0,61.3,24.9,116.8,65,157c40.2,40.2,95.7,65.1,157,65.1c61.3,0,116.8-24.9,157-65.1l0.8-0.7C539.3,458,563.8,402.7,563.8,341.7L563.8,341.7z M520.4,163.1c45.7,45.8,74,108.9,74,178.6c0,69.3-27.9,132.1-73.2,177.7l-0.9,0.9c-45.7,45.7-108.9,74-178.7,74c-69.8,0-133-28.3-178.7-74c-45.7-45.7-74-108.9-74-178.7c0-69.7,28.3-132.9,74-178.6l0.1-0.1c45.7-45.7,108.9-74,178.6-74C411.6,89.1,474.7,117.4,520.4,163.1L520.4,163.1z"/><path d="M627.6,510.3c-4.3,7.2-13.7,9.7-20.9,5.4c-7.2-4.3-9.7-13.7-5.4-20.9c34.5-58.4,47.5-126,39.3-191.3c-8.1-63.8-36.8-125.6-85.9-174.7c-58.8-58.8-135.9-88.2-213-88.2c-77.1,0-154.2,29.4-212.9,88.1l-0.1,0l0,0c-58.8,58.8-88.2,135.9-88.2,213c0,77,29.4,154.2,88.2,213c58.8,58.8,135.9,88.2,212.9,88.2c77.1,0,154.2-29.4,213-88.2c6-5.9,15.7-5.9,21.6,0.1c5.9,6,5.9,15.7-0.1,21.6c-64.8,64.8-149.7,97.2-234.6,97.2c-84.9,0-169.9-32.4-234.6-97.2C42.4,511.6,10,426.6,10,341.7c0-84.9,32.4-169.9,97.2-234.6l0,0C172,42.4,256.9,9.9,341.8,9.9c84.9,0,169.8,32.4,234.6,97.2c54,54,85.5,122.1,94.5,192.6C680,371.6,665.6,446,627.6,510.3z"/><path d="M341.8,168.2c8.5,0,15.3,6.9,15.3,15.3c0,8.5-6.9,15.3-15.3,15.3c-10,0-19.5,1-28.5,2.8c-9.4,1.9-18.5,4.8-27.2,8.4c-8.3,3.5-16.4,7.9-24.1,13.1l-0.7,0.5c-7.2,4.9-14.1,10.7-20.5,17.1c-13,13-23.5,28.4-30.7,45.4c-3.6,8.6-6.5,17.8-8.4,27.2c-1.8,9-2.8,18.5-2.8,28.5c0,8.5-6.9,15.3-15.3,15.3c-8.5,0-15.3-6.9-15.3-15.3c0-11.6,1.2-23.1,3.5-34.5c2.3-11.5,5.8-22.5,10.2-33.1c8.8-20.9,21.6-39.6,37.1-55.2c7.5-7.5,15.9-14.4,24.9-20.6l0.9-0.6c9.1-6.1,19-11.5,29.4-15.9c10.5-4.4,21.6-7.9,33.1-10.2C318.7,169.4,330.2,168.2,341.8,168.2z"/><path d="M554.7,576.4c-6-6-6-15.7,0-21.7c6-6,15.7-6,21.7,0l87.4,87.4c6,6,6,15.7,0,21.7c-6,6-15.7,6-21.7,0L554.7,576.4z"/><path d="M644.6,644.6L644.6,644.6c10.7-10.7,24.8-16,38.8-16c14,0,28,5.3,38.7,16l0,0l0,0l0,0l83.9,83.9l83.9,83.9l83.9,83.9h0c10.7,10.7,16,24.8,16,38.8c0,14-5.3,28-16,38.7l0,0l0,0l0,0h0c-10.7,10.7-24.8,16-38.8,16c-14,0-28.1-5.3-38.8-16h0l-83.9-83.9l-83.9-83.9l-83.9-83.9l0,0c-10.7-10.7-16-24.8-16-38.8C628.6,669.4,633.9,655.3,644.6,644.6L644.6,644.6L644.6,644.6z M666.3,666.3L666.3,666.3L666.3,666.3c-4.7,4.7-7.1,10.9-7.1,17.1s2.4,12.4,7.1,17.1l0,0l83.9,83.9l83.9,83.9l83.9,83.9h0c4.7,4.7,10.9,7,17.1,7c6.2,0,12.4-2.4,17.1-7l0,0l0,0l0,0c4.7-4.7,7-10.9,7-17.2c0-6.2-2.4-12.4-7-17.1l0,0l-83.9-83.9l-83.9-83.9l-83.9-83.9v0l0,0c-4.7-4.7-10.9-7-17.2-7C677.2,659.2,671,661.6,666.3,666.3z"/></g></g></g><g></g><g></g><g></g><g></g><g></g><g></g><g></g><g></g><g></g><g></g><g></g><g></g><g></g><g></g><g></g></g>
</svg>